# This file uses centimeters as units for non-parametric coordinates.

mtllib File.mtl
g default
v -0.765503 0.002947 0.500000
v 0.765503 0.002947 0.500000
v -0.765503 0.040233 0.500000
v 0.765503 0.040233 0.500000
v -0.765503 0.040233 -0.500000
v 0.765503 0.040233 -0.500000
v -0.765503 0.002947 -0.500000
v 0.765503 0.002947 -0.500000
v -0.449114 0.002947 0.500000
v -0.449114 0.002947 -0.500000
v -0.449114 0.040233 -0.500000
v -0.449114 0.040233 0.500000
v -0.406226 0.040233 -0.452252
v 0.692400 0.040233 -0.452252
v -0.692400 0.040233 -0.452252
v -0.406226 0.096598 -0.452252
v 0.692400 0.096598 -0.452252
v -0.692400 0.096598 -0.452252
v -0.406226 0.121937 -0.450752
v -0.449114 0.065572 0.501500
v 0.765503 0.065572 0.501500
v 0.692400 0.121937 -0.450752
v -0.765503 0.065572 0.501500
v -0.692400 0.121937 -0.450752
v 0.748604 0.096853 -0.456551
v 0.748604 0.122192 -0.455052
v -0.748604 0.096853 -0.456551
v -0.748604 0.122192 -0.455052
v -0.731514 0.040233 -0.617612
v -0.472956 0.040233 -0.617612
v -0.472956 0.002947 -0.617612
v -0.731514 0.002947 -0.617612
v -0.406226 0.099574 -0.503557
v 0.692400 0.099574 -0.503557
v -0.406226 0.124913 -0.502058
v 0.692400 0.124913 -0.502058
v -0.692400 0.099574 -0.503557
v -0.692400 0.124913 -0.502058
v 0.748604 0.125167 -0.506357
v 0.748604 0.099828 -0.507857
v -0.748604 0.099828 -0.507857
v -0.748604 0.125167 -0.506357
vt 0.283254 0.982894
vt 0.283254 0.710632
vt 0.409413 0.710632
vt 0.409413 0.982894
vt 0.560617 0.274254
vt 0.560617 0.001992
vt 0.686776 0.001992
vt 0.686776 0.274254
vt 0.686776 0.306275
vt 0.560617 0.306275
vt 0.417218 0.860642
vt 0.417218 0.601380
vt 0.607931 0.601380
vt 0.615335 0.860642
vt 0.615335 0.601380
vt 0.806047 0.860642
vt 0.135389 0.419391
vt 0.395821 0.610964
vt 0.395413 0.696700
vt 0.134980 0.505126
vt 0.409790 0.621032
vt 0.409382 0.706768
vt 0.015897 0.902205
vt 0.276330 0.710632
vt 0.276738 0.796367
vt 0.016305 0.987940
vt 0.002337 0.998008
vt 0.001929 0.912273
vt 0.882253 0.656160
vt 0.882253 0.530002
vt 0.914274 0.530002
vt 0.914274 0.656160
vt 0.337631 0.306275
vt 0.337631 0.034013
vt 0.553629 0.034013
vt 0.553629 0.306275
vt 0.281367 0.034013
vt 0.281367 0.306275
vt 0.287411 0.001992
vt 0.333391 0.001992
vt 0.966193 0.001992
vt 0.966193 0.274254
vt 0.953193 0.261254
vt 0.750196 0.274254
vt 0.757823 0.261254
vt 0.693931 0.274254
vt 0.706931 0.261254
vt 0.745956 0.306275
vt 0.699976 0.306275
vt 0.693931 0.001992
vt 0.058193 0.128151
vt 0.058193 0.001992
vt 0.274191 0.001992
vt 0.274191 0.128151
vt 0.001929 0.001992
vt 0.001929 0.128151
vt 0.274191 0.213886
vt 0.058193 0.213886
vt 0.001929 0.213886
vt 0.065820 0.404598
vt 0.261191 0.404598
vt 0.014929 0.404598
vt 0.271185 0.405459
vt 0.261191 0.414666
vt 0.065820 0.414666
vt 0.014929 0.414666
vt 0.004934 0.405459
vt 0.271185 0.415527
vt 0.004934 0.415527
vt 0.939610 0.526137
vt 0.813451 0.526137
vt 0.813451 0.310139
vt 0.939610 0.310139
vt 0.920213 0.530002
vt 0.966193 0.530002
vt 0.966193 0.656160
vt 0.920213 0.656160
vt 0.674992 0.597516
vt 0.479621 0.597516
vt 0.479621 0.406803
vt 0.674992 0.406803
vt 0.428730 0.597516
vt 0.428730 0.406803
vt 0.479621 0.396735
vt 0.674992 0.396735
vt 0.428730 0.396735
vt 0.479621 0.311000
vt 0.674992 0.311000
vt 0.684987 0.405943
vt 0.684987 0.395875
vt 0.418735 0.405943
vt 0.418735 0.395875
vt 0.428730 0.311000
vt 0.684987 0.310139
vt 0.687992 0.597516
vt 0.415730 0.597516
vt 0.418735 0.310139
vn 0.000000 -0.023943 0.999713
vn 0.000000 0.000000 1.000000
vn 0.000000 0.000000 1.000000
vn 0.188771 -0.023396 0.981742
vn 0.000000 0.998253 0.059088
vn 0.000000 0.998253 0.059088
vn 0.000000 0.998253 0.059088
vn 0.000000 0.998253 0.059088
vn 0.000000 0.000000 -1.000000
vn 0.000000 0.000000 -1.000000
vn 0.000000 0.000000 -1.000000
vn 0.000000 0.000000 -1.000000
vn 0.000000 -1.000000 0.000000
vn 0.000000 -1.000000 0.000000
vn 0.000000 -1.000000 0.000000
vn 0.000000 -1.000000 0.000000
vn 1.000000 0.000000 0.000000
vn 1.000000 0.000000 0.000000
vn 1.000000 0.000000 0.000000
vn 1.000000 0.000000 0.000000
vn -1.000000 0.000000 0.000000
vn -1.000000 0.000000 0.000000
vn -1.000000 0.000000 0.000000
vn -1.000000 0.000000 0.000000
vn 0.000000 -1.000000 0.000000
vn 0.000000 -1.000000 0.000000
vn 0.000000 0.000000 -1.000000
vn 0.000000 0.000000 -1.000000
vn 0.000000 0.000000 -1.000000
vn 0.000000 0.000000 -1.000000
vn -0.000000 0.998253 0.059088
vn -0.000000 0.998253 0.059088
vn 0.000000 0.000000 1.000000
vn -0.597496 -0.018828 0.801651
vn 0.000000 1.000000 0.000000
vn 0.000000 1.000000 0.000000
vn 0.000000 1.000000 0.000000
vn 0.000000 1.000000 0.000000
vn 0.000000 1.000000 0.000000
vn 0.000000 1.000000 0.000000
vn 0.000000 1.000000 0.000000
vn 0.000000 1.000000 -0.000000
vn 0.000000 1.000000 -0.000000
vn 0.000000 1.000000 -0.000000
vn 0.000000 1.000000 -0.000000
vn 0.000000 1.000000 0.000000
vn 0.000000 1.000000 0.000000
vn 0.000000 1.000000 0.000000
vn 0.997066 0.000000 -0.076543
vn 0.997066 0.000000 -0.076543
vn 0.997066 0.000000 -0.076543
vn 0.000000 0.000000 -1.000000
vn 0.000000 0.000000 -1.000000
vn 0.000000 0.000000 -1.000000
vn 0.000000 0.000000 -1.000000
vn 0.000000 0.000000 -1.000000
vn 0.000000 0.000000 -1.000000
vn 0.000000 0.000000 -1.000000
vn 0.000000 0.000000 -1.000000
vn -0.997066 0.000000 -0.076543
vn -0.997066 0.000000 -0.076543
vn -0.997066 0.000000 -0.076543
vn 0.747993 -0.039217 0.662547
vn 0.000000 -0.059090 0.998253
vn 0.999844 0.001043 -0.017602
vn 0.999845 0.001043 -0.017602
vn -0.003538 0.059087 -0.998247
vn 0.000000 0.059087 -0.998253
vn 0.000000 0.059087 -0.998253
vn -0.003921 0.059087 -0.998245
vn -0.977034 -0.012589 0.212709
vn 0.012006 0.059083 -0.998181
vn 0.013141 0.059082 -0.998167
vn -0.999844 0.001044 -0.017602
vn -0.999845 0.001044 -0.017602
vn -0.000001 -0.998253 -0.059088
vn -0.000001 -0.998253 -0.059088
vn -0.000001 -0.998253 -0.059088
vn -0.076408 0.058915 -0.995335
vn -0.076408 0.058915 -0.995335
vn 0.000001 0.998253 0.059088
vn 0.000001 -0.998253 -0.059088
vn 0.000001 -0.998253 -0.059088
vn 0.000001 -0.998253 -0.059088
vn -0.000001 0.998253 0.059088
vn 0.076408 0.058914 -0.995335
vn 0.076408 0.058914 -0.995335
vn 0.000000 1.000000 0.000000
vn 0.000000 1.000000 0.000000
vn 0.000000 1.000000 0.000000
vn 0.000000 1.000000 0.000000
vn 0.980066 0.000000 -0.198671
vn 0.980066 0.000000 -0.198671
vn 0.980066 0.000000 -0.198671
vn 0.980066 0.000000 -0.198671
vn 0.000000 -1.000000 -0.000000
vn 0.000000 -1.000000 -0.000000
vn 0.000000 -1.000000 -0.000000
vn 0.000000 -1.000000 -0.000000
vn -0.960688 0.000000 -0.277632
vn -0.960688 0.000000 -0.277632
vn -0.960688 0.000000 -0.277632
vn -0.960688 0.000000 -0.277632
vn 0.000000 -0.998322 -0.057900
vn 0.000000 -0.998322 -0.057900
vn 0.000000 -0.998322 -0.057900
vn 0.000000 -0.998322 -0.057900
vn 0.000000 0.998322 0.057900
vn 0.000000 0.998322 0.057900
vn 0.000000 0.998322 0.057900
vn 0.000000 0.998322 0.057900
vn 0.000000 -0.998322 -0.057900
vn 0.000000 -0.998322 -0.057900
vn 0.000000 -0.998322 -0.057900
vn 0.000000 -0.998322 -0.057900
vn 0.000000 0.998322 0.057900
vn 0.000000 0.998322 0.057900
vn 0.000000 0.998322 0.057900
vn 0.000000 0.998322 0.057900
vn -0.000090 0.998322 0.057900
vn -0.000090 0.998322 0.057900
vn -0.000090 0.998322 0.057900
vn -0.000090 0.998322 0.057900
vn 1.000000 0.000000 0.000000
vn 1.000000 0.000000 0.000000
vn 1.000000 0.000000 0.000000
vn 1.000000 0.000000 0.000000
vn 0.000090 -0.998322 -0.057900
vn 0.000090 -0.998322 -0.057900
vn 0.000090 -0.998322 -0.057900
vn 0.000090 -0.998322 -0.057900
vn -0.000090 -0.998322 -0.057900
vn -0.000090 -0.998322 -0.057900
vn -0.000090 -0.998322 -0.057900
vn -0.000090 -0.998322 -0.057900
vn -1.000000 0.000000 0.000000
vn -1.000000 0.000000 0.000000
vn -1.000000 0.000000 0.000000
vn -1.000000 0.000000 0.000000
vn 0.000090 0.998322 0.057900
vn 0.000090 0.998322 0.057900
vn 0.000090 0.998322 0.057900
vn 0.000090 0.998322 0.057900
s 1
g pCube1
usemtl initialShadingGroup
f 12/51/1 9/52/2 2/53/3 4/54/4
s 2
f 19/60/5 20/58/6 21/57/7 22/61/8
s off
f 10/70/9 11/71/10 6/72/11 8/73/12
s 3
f 9/33/13 10/34/14 8/35/15 2/36/16
s off
f 2/1/17 8/2/18 6/3/19 4/4/20
f 7/5/21 1/6/22 3/7/23 5/8/24
s 3
f 7/37/25 10/34/14 9/33/13 1/38/26
s off
f 29/74/27 30/75/28 31/76/29 32/77/30
s 2
f 23/59/31 20/58/6 19/60/5 24/62/32
s 1
f 1/55/33 9/52/2 12/51/1 3/56/34
s off
f 4/41/35 6/42/36 14/43/37
f 6/42/38 11/44/39 13/45/40 14/43/41
f 11/44/42 5/46/43 15/47/44 13/45/45
f 5/46/46 3/50/47 15/47/48
f 4/11/49 14/12/50 17/13/51
f 14/78/52 13/79/53 16/80/54 17/81/55
f 13/79/56 15/82/57 18/83/58 16/80/59
f 15/14/60 3/15/61 18/16/62
s 1
f 12/51/1 4/54/4 21/57/63 20/58/64
f 4/17/4 25/18/65 26/19/66 21/20/63
s 4
f 34/85/67 33/84/68 35/87/69 36/88/70
s 1
f 3/56/34 12/51/1 20/58/64 23/59/71
s 4
f 33/84/68 37/86/72 38/93/73 35/87/69
s 1
f 27/23/74 3/24/34 23/25/71 28/26/75
s off
f 4/95/76 17/81/77 25/89/78
s 4
f 34/85/67 36/88/70 39/94/79 40/90/80
s 2
f 22/61/8 21/57/7 26/63/81
s off
f 18/83/82 3/96/83 27/91/84
s 2
f 23/59/31 24/62/32 28/67/85
s 4
f 38/93/73 37/86/72 41/92/86 42/97/87
s off
f 5/46/88 11/44/89 30/48/90 29/49/91
f 11/29/92 10/30/93 31/31/94 30/32/95
f 10/34/96 7/37/97 32/39/98 31/40/99
f 7/5/100 5/8/101 29/9/102 32/10/103
f 17/81/104 16/80/105 33/84/106 34/85/107
f 19/60/108 22/61/109 36/64/110 35/65/111
f 16/80/112 18/83/113 37/86/114 33/84/115
f 24/62/116 19/60/117 35/65/118 38/66/119
f 22/61/120 26/63/121 39/68/122 36/64/123
f 26/19/124 25/18/125 40/21/126 39/22/127
f 25/89/128 17/81/129 34/85/130 40/90/131
f 18/83/132 27/91/133 41/92/134 37/86/135
f 27/23/136 28/26/137 42/27/138 41/28/139
f 28/67/140 24/62/141 38/66/142 42/69/143
